<?xml version="1.0" standalone="no"?>
<!DOCTYPE svg PUBLIC "-//W3C//DTD SVG 20010904//EN"
 "http://www.w3.org/TR/2001/REC-SVG-20010904/DTD/svg10.dtd">
<svg version="1.0" xmlns="http://www.w3.org/2000/svg"
 width="260.000000pt" height="260.000000pt" viewBox="0 0 260.000000 260.000000"
 preserveAspectRatio="xMidYMid meet">
<metadata>
Created by potrace 1.11, written by Peter Selinger 2001-2013
</metadata>
<g transform="translate(0.000000,260.000000) scale(0.100000,-0.100000)"
fill="#000000" stroke="none">
<path d="M1183 2269 c-272 -45 -497 -290 -528 -574 -4 -33 -9 -62 -11 -64 -2
-2 -19 -5 -36 -7 -129 -11 -213 -40 -318 -109 -188 -125 -294 -331 -286 -560
5 -118 18 -172 69 -275 59 -120 170 -232 288 -288 147 -71 139 -70 939 -71
616 0 725 2 785 16 196 44 358 171 444 347 53 109 72 200 67 318 -14 306 -229
555 -526 612 -36 7 -77 12 -93 12 -24 -2 -27 2 -27 31 0 56 -29 171 -60 240
-102 224 -318 370 -559 378 -53 1 -119 -1 -148 -6z"/>
</g>
</svg>
